<mxfile host="65bd71144e">
    <diagram id="BxO6klJEb_uLm9-A6uWJ" name="Page-1">
        <mxGraphModel dx="1668" dy="1139" grid="1" gridSize="10" guides="1" tooltips="1" connect="1" arrows="1" fold="1" page="1" pageScale="1" pageWidth="1200" pageHeight="1920" math="0" shadow="0">
            <root>
                <mxCell id="0"/>
                <mxCell id="1" parent="0"/>
                <mxCell id="5" style="edgeStyle=none;html=1;exitX=0.5;exitY=1;exitDx=0;exitDy=0;entryX=0.5;entryY=0;entryDx=0;entryDy=0;" parent="1" source="2" target="3" edge="1">
                    <mxGeometry relative="1" as="geometry"/>
                </mxCell>
                <mxCell id="8" style="edgeStyle=none;html=1;fontSize=12;" parent="1" source="3" target="7" edge="1">
                    <mxGeometry relative="1" as="geometry"/>
                </mxCell>
                <mxCell id="9" style="edgeStyle=none;html=1;fontSize=12;" parent="1" source="3" target="6" edge="1">
                    <mxGeometry relative="1" as="geometry"/>
                </mxCell>
                <mxCell id="3" value="블랙잭 게임&lt;br&gt;start&amp;nbsp;&lt;br&gt;Y or N" style="rhombus;whiteSpace=wrap;html=1;fontFamily=Helvetica;fontSize=12;fontColor=default;align=center;strokeColor=default;strokeWidth=1;fillColor=default;" parent="1" vertex="1">
                    <mxGeometry x="480" y="210" width="240" height="160" as="geometry"/>
                </mxCell>
                <mxCell id="2" value="Start" style="rounded=0;whiteSpace=wrap;html=1;perimeterSpacing=6;strokeWidth=1;fontSize=12;gradientColor=none;" parent="1" vertex="1">
                    <mxGeometry x="540" y="80" width="120" height="60" as="geometry"/>
                </mxCell>
                <mxCell id="6" value="Exit" style="rounded=0;whiteSpace=wrap;html=1;strokeWidth=1;fontSize=12;gradientColor=none;" parent="1" vertex="1">
                    <mxGeometry x="220" y="260" width="120" height="60" as="geometry"/>
                </mxCell>
                <mxCell id="D96x7bOmITaF-tAiG1XP-35" value="" style="edgeStyle=orthogonalEdgeStyle;rounded=0;orthogonalLoop=1;jettySize=auto;html=1;" parent="1" source="7" target="D96x7bOmITaF-tAiG1XP-26" edge="1">
                    <mxGeometry relative="1" as="geometry"/>
                </mxCell>
                <mxCell id="D96x7bOmITaF-tAiG1XP-36" value="" style="edgeStyle=orthogonalEdgeStyle;rounded=0;orthogonalLoop=1;jettySize=auto;html=1;" parent="1" source="7" edge="1">
                    <mxGeometry relative="1" as="geometry">
                        <mxPoint x="600" y="650" as="targetPoint"/>
                    </mxGeometry>
                </mxCell>
                <mxCell id="7" value="랜덤 숫자 생성&lt;br&gt;11, 1~9, 10 x 3 개&amp;nbsp;&lt;br&gt;user : 2개 (덧셈 결과 출력)&lt;br&gt;dealer : 1개" style="rounded=0;whiteSpace=wrap;html=1;strokeWidth=1;fontSize=12;gradientColor=none;shape=rhombus;perimeter=rhombusPerimeter;" parent="1" vertex="1">
                    <mxGeometry x="480" y="420" width="240" height="160" as="geometry"/>
                </mxCell>
                <mxCell id="10" value="Yes" style="text;html=1;align=center;verticalAlign=middle;resizable=0;points=[];autosize=1;strokeColor=none;fillColor=none;fontSize=12;" parent="1" vertex="1">
                    <mxGeometry x="610" y="378" width="40" height="30" as="geometry"/>
                </mxCell>
                <mxCell id="11" value="No" style="text;html=1;align=center;verticalAlign=middle;resizable=0;points=[];autosize=1;strokeColor=none;fillColor=none;fontSize=12;" parent="1" vertex="1">
                    <mxGeometry x="380" y="260" width="40" height="30" as="geometry"/>
                </mxCell>
                <mxCell id="D96x7bOmITaF-tAiG1XP-21" value="if user 두개 값이 21보다 크다면 게임 종료" style="text;html=1;align=center;verticalAlign=middle;resizable=0;points=[];autosize=1;strokeColor=none;fillColor=none;" parent="1" vertex="1">
                    <mxGeometry x="805" y="348" width="250" height="30" as="geometry"/>
                </mxCell>
                <mxCell id="D96x7bOmITaF-tAiG1XP-26" value="pc 카드 총합&lt;br&gt;user보다 작다 = you win&lt;br&gt;user보다 크다 = you lose&lt;br&gt;21보다 크다 = you win" style="rounded=0;whiteSpace=wrap;html=1;strokeWidth=1;fontSize=12;gradientColor=none;shape=rhombus;perimeter=rhombusPerimeter;" parent="1" vertex="1">
                    <mxGeometry x="815" y="420" width="240" height="160" as="geometry"/>
                </mxCell>
                <mxCell id="D96x7bOmITaF-tAiG1XP-29" value="n" style="text;html=1;align=center;verticalAlign=middle;resizable=0;points=[];autosize=1;strokeColor=none;fillColor=none;" parent="1" vertex="1">
                    <mxGeometry x="750" y="460" width="30" height="30" as="geometry"/>
                </mxCell>
                <mxCell id="D96x7bOmITaF-tAiG1XP-47" value="" style="edgeStyle=orthogonalEdgeStyle;rounded=0;orthogonalLoop=1;jettySize=auto;html=1;" parent="1" edge="1">
                    <mxGeometry relative="1" as="geometry">
                        <mxPoint x="600" y="810" as="sourcePoint"/>
                    </mxGeometry>
                </mxCell>
                <mxCell id="D96x7bOmITaF-tAiG1XP-49" value="n" style="edgeLabel;html=1;align=center;verticalAlign=middle;resizable=0;points=[];fontSize=16;fontFamily=Helvetica;fontColor=default;" parent="D96x7bOmITaF-tAiG1XP-47" vertex="1" connectable="0">
                    <mxGeometry x="-0.025" y="2" relative="1" as="geometry">
                        <mxPoint as="offset"/>
                    </mxGeometry>
                </mxCell>
                <mxCell id="D96x7bOmITaF-tAiG1XP-34" value="y" style="text;html=1;align=center;verticalAlign=middle;resizable=0;points=[];autosize=1;strokeColor=none;fillColor=none;" parent="1" vertex="1">
                    <mxGeometry x="610" y="600" width="30" height="30" as="geometry"/>
                </mxCell>
                <mxCell id="1RT8lEKowrVVDk6PhkPk-20" style="edgeStyle=orthogonalEdgeStyle;rounded=0;orthogonalLoop=1;jettySize=auto;html=1;exitX=1;exitY=0.5;exitDx=0;exitDy=0;entryX=0;entryY=0.5;entryDx=0;entryDy=0;" parent="1" source="1RT8lEKowrVVDk6PhkPk-16" target="1RT8lEKowrVVDk6PhkPk-18" edge="1">
                    <mxGeometry relative="1" as="geometry"/>
                </mxCell>
                <mxCell id="1RT8lEKowrVVDk6PhkPk-23" value="user blackjack" style="edgeLabel;html=1;align=center;verticalAlign=middle;resizable=0;points=[];" parent="1RT8lEKowrVVDk6PhkPk-20" vertex="1" connectable="0">
                    <mxGeometry x="0.3214" relative="1" as="geometry">
                        <mxPoint x="-65" as="offset"/>
                    </mxGeometry>
                </mxCell>
                <mxCell id="1RT8lEKowrVVDk6PhkPk-22" style="edgeStyle=orthogonalEdgeStyle;rounded=0;orthogonalLoop=1;jettySize=auto;html=1;entryX=0;entryY=0.5;entryDx=0;entryDy=0;" parent="1" source="1RT8lEKowrVVDk6PhkPk-16" target="1RT8lEKowrVVDk6PhkPk-19" edge="1">
                    <mxGeometry relative="1" as="geometry"/>
                </mxCell>
                <mxCell id="1RT8lEKowrVVDk6PhkPk-24" value="dealer blackjack" style="edgeLabel;html=1;align=center;verticalAlign=middle;resizable=0;points=[];" parent="1RT8lEKowrVVDk6PhkPk-22" vertex="1" connectable="0">
                    <mxGeometry x="0.6" y="-3" relative="1" as="geometry">
                        <mxPoint x="-104" as="offset"/>
                    </mxGeometry>
                </mxCell>
                <mxCell id="1RT8lEKowrVVDk6PhkPk-28" value="" style="edgeStyle=orthogonalEdgeStyle;rounded=0;orthogonalLoop=1;jettySize=auto;html=1;" parent="1" source="1RT8lEKowrVVDk6PhkPk-16" target="1RT8lEKowrVVDk6PhkPk-27" edge="1">
                    <mxGeometry relative="1" as="geometry"/>
                </mxCell>
                <mxCell id="22" style="edgeStyle=orthogonalEdgeStyle;html=1;exitX=1;exitY=0.5;exitDx=0;exitDy=0;entryX=0;entryY=0.5;entryDx=0;entryDy=0;rounded=0;" edge="1" parent="1" source="1RT8lEKowrVVDk6PhkPk-16" target="14">
                    <mxGeometry relative="1" as="geometry"/>
                </mxCell>
                <mxCell id="23" value="same blackjack" style="edgeLabel;html=1;align=center;verticalAlign=middle;resizable=0;points=[];" vertex="1" connectable="0" parent="22">
                    <mxGeometry x="0.3026" relative="1" as="geometry">
                        <mxPoint x="-45" as="offset"/>
                    </mxGeometry>
                </mxCell>
                <mxCell id="1RT8lEKowrVVDk6PhkPk-16" value="blackjack 판별&lt;br&gt;uset &amp;amp; dealer&lt;br&gt;(Ace + 10)" style="rhombus;whiteSpace=wrap;html=1;shadow=0;fontFamily=Helvetica;fontSize=12;align=center;strokeWidth=1;spacing=6;spacingTop=-4;" parent="1" vertex="1">
                    <mxGeometry x="490" y="650" width="220" height="160" as="geometry"/>
                </mxCell>
                <mxCell id="1RT8lEKowrVVDk6PhkPk-18" value="Win" style="rounded=1;whiteSpace=wrap;html=1;fontSize=12;glass=0;strokeWidth=1;shadow=0;" parent="1" vertex="1">
                    <mxGeometry x="940" y="650" width="180" height="60" as="geometry"/>
                </mxCell>
                <mxCell id="1RT8lEKowrVVDk6PhkPk-19" value="Lose" style="rounded=1;whiteSpace=wrap;html=1;fontSize=12;glass=0;strokeWidth=1;shadow=0;" parent="1" vertex="1">
                    <mxGeometry x="940" y="750" width="180" height="60" as="geometry"/>
                </mxCell>
                <mxCell id="1RT8lEKowrVVDk6PhkPk-34" value="" style="edgeStyle=orthogonalEdgeStyle;rounded=0;orthogonalLoop=1;jettySize=auto;html=1;" parent="1" source="1RT8lEKowrVVDk6PhkPk-27" target="1RT8lEKowrVVDk6PhkPk-33" edge="1">
                    <mxGeometry relative="1" as="geometry"/>
                </mxCell>
                <mxCell id="1RT8lEKowrVVDk6PhkPk-38" value="" style="edgeStyle=orthogonalEdgeStyle;rounded=0;orthogonalLoop=1;jettySize=auto;html=1;" parent="1" source="1RT8lEKowrVVDk6PhkPk-27" target="1RT8lEKowrVVDk6PhkPk-37" edge="1">
                    <mxGeometry relative="1" as="geometry"/>
                </mxCell>
                <mxCell id="1RT8lEKowrVVDk6PhkPk-27" value="user 카드 추가 뽑기" style="rhombus;whiteSpace=wrap;html=1;shadow=0;fontFamily=Helvetica;fontSize=12;align=center;strokeWidth=1;spacing=6;spacingTop=-4;" parent="1" vertex="1">
                    <mxGeometry x="490" y="890" width="220" height="160" as="geometry"/>
                </mxCell>
                <mxCell id="1RT8lEKowrVVDk6PhkPk-45" value="" style="edgeStyle=orthogonalEdgeStyle;rounded=0;orthogonalLoop=1;jettySize=auto;html=1;" parent="1" source="1RT8lEKowrVVDk6PhkPk-33" target="1RT8lEKowrVVDk6PhkPk-44" edge="1">
                    <mxGeometry relative="1" as="geometry"/>
                </mxCell>
                <mxCell id="1RT8lEKowrVVDk6PhkPk-46" value="17보다 낮은 수" style="edgeLabel;html=1;align=center;verticalAlign=middle;resizable=0;points=[];" parent="1RT8lEKowrVVDk6PhkPk-45" vertex="1" connectable="0">
                    <mxGeometry x="-0.275" y="1" relative="1" as="geometry">
                        <mxPoint y="3" as="offset"/>
                    </mxGeometry>
                </mxCell>
                <mxCell id="1RT8lEKowrVVDk6PhkPk-47" value="" style="edgeStyle=orthogonalEdgeStyle;rounded=0;orthogonalLoop=1;jettySize=auto;html=1;" parent="1" source="1RT8lEKowrVVDk6PhkPk-33" target="1RT8lEKowrVVDk6PhkPk-44" edge="1">
                    <mxGeometry relative="1" as="geometry"/>
                </mxCell>
                <mxCell id="1RT8lEKowrVVDk6PhkPk-33" value="dealer 2번째 카드 공개&lt;br&gt;17보다 낮으면 카드 뽑기" style="rhombus;whiteSpace=wrap;html=1;shadow=0;fontFamily=Helvetica;fontSize=12;align=center;strokeWidth=1;spacing=6;spacingTop=-4;" parent="1" vertex="1">
                    <mxGeometry x="190" y="1130" width="220" height="160" as="geometry"/>
                </mxCell>
                <mxCell id="1RT8lEKowrVVDk6PhkPk-39" style="edgeStyle=orthogonalEdgeStyle;rounded=0;orthogonalLoop=1;jettySize=auto;html=1;entryX=1;entryY=0.5;entryDx=0;entryDy=0;exitX=1;exitY=0.5;exitDx=0;exitDy=0;" parent="1" source="1RT8lEKowrVVDk6PhkPk-37" target="1RT8lEKowrVVDk6PhkPk-27" edge="1">
                    <mxGeometry relative="1" as="geometry">
                        <mxPoint x="730" y="1190" as="sourcePoint"/>
                        <mxPoint x="840" y="1020" as="targetPoint"/>
                        <Array as="points">
                            <mxPoint x="770" y="1210"/>
                            <mxPoint x="770" y="970"/>
                        </Array>
                    </mxGeometry>
                </mxCell>
                <mxCell id="1RT8lEKowrVVDk6PhkPk-42" value="추가 뽑기&lt;br&gt;" style="edgeLabel;html=1;align=center;verticalAlign=middle;resizable=0;points=[];" parent="1RT8lEKowrVVDk6PhkPk-39" vertex="1" connectable="0">
                    <mxGeometry x="-0.0167" y="-4" relative="1" as="geometry">
                        <mxPoint as="offset"/>
                    </mxGeometry>
                </mxCell>
                <mxCell id="1RT8lEKowrVVDk6PhkPk-43" value="" style="edgeStyle=orthogonalEdgeStyle;rounded=0;orthogonalLoop=1;jettySize=auto;html=1;" parent="1" source="1RT8lEKowrVVDk6PhkPk-37" target="1RT8lEKowrVVDk6PhkPk-33" edge="1">
                    <mxGeometry relative="1" as="geometry"/>
                </mxCell>
                <mxCell id="1RT8lEKowrVVDk6PhkPk-37" value="21보다 낮은가?" style="rhombus;whiteSpace=wrap;html=1;shadow=0;fontFamily=Helvetica;fontSize=12;align=center;strokeWidth=1;spacing=6;spacingTop=-4;" parent="1" vertex="1">
                    <mxGeometry x="490" y="1130" width="220" height="160" as="geometry"/>
                </mxCell>
                <mxCell id="1RT8lEKowrVVDk6PhkPk-52" value="" style="edgeStyle=orthogonalEdgeStyle;rounded=0;orthogonalLoop=1;jettySize=auto;html=1;" parent="1" source="1RT8lEKowrVVDk6PhkPk-44" target="1RT8lEKowrVVDk6PhkPk-51" edge="1">
                    <mxGeometry relative="1" as="geometry"/>
                </mxCell>
                <mxCell id="1RT8lEKowrVVDk6PhkPk-55" value="user보다 큼" style="edgeLabel;html=1;align=center;verticalAlign=middle;resizable=0;points=[];" parent="1RT8lEKowrVVDk6PhkPk-52" vertex="1" connectable="0">
                    <mxGeometry x="0.0133" y="-3" relative="1" as="geometry">
                        <mxPoint as="offset"/>
                    </mxGeometry>
                </mxCell>
                <mxCell id="1RT8lEKowrVVDk6PhkPk-53" style="edgeStyle=orthogonalEdgeStyle;rounded=0;orthogonalLoop=1;jettySize=auto;html=1;" parent="1" source="1RT8lEKowrVVDk6PhkPk-44" target="1RT8lEKowrVVDk6PhkPk-50" edge="1">
                    <mxGeometry relative="1" as="geometry"/>
                </mxCell>
                <mxCell id="1RT8lEKowrVVDk6PhkPk-54" value="user보다 작음&lt;br&gt;21보다 큼" style="edgeLabel;html=1;align=center;verticalAlign=middle;resizable=0;points=[];" parent="1RT8lEKowrVVDk6PhkPk-53" vertex="1" connectable="0">
                    <mxGeometry relative="1" as="geometry">
                        <mxPoint as="offset"/>
                    </mxGeometry>
                </mxCell>
                <mxCell id="1RT8lEKowrVVDk6PhkPk-44" value="user와 dealer 카드 비교" style="rhombus;whiteSpace=wrap;html=1;shadow=0;fontFamily=Helvetica;fontSize=12;align=center;strokeWidth=1;spacing=6;spacingTop=-4;" parent="1" vertex="1">
                    <mxGeometry x="190" y="1370" width="220" height="160" as="geometry"/>
                </mxCell>
                <mxCell id="1RT8lEKowrVVDk6PhkPk-50" value="Win" style="rounded=1;whiteSpace=wrap;html=1;fontSize=12;glass=0;strokeWidth=1;shadow=0;" parent="1" vertex="1">
                    <mxGeometry x="510" y="1370" width="180" height="60" as="geometry"/>
                </mxCell>
                <mxCell id="1RT8lEKowrVVDk6PhkPk-51" value="Lose" style="rounded=1;whiteSpace=wrap;html=1;fontSize=12;glass=0;strokeWidth=1;shadow=0;" parent="1" vertex="1">
                    <mxGeometry x="510" y="1470" width="180" height="60" as="geometry"/>
                </mxCell>
                <mxCell id="14" value="Draw" style="rounded=1;whiteSpace=wrap;html=1;fontSize=12;glass=0;strokeWidth=1;shadow=0;" vertex="1" parent="1">
                    <mxGeometry x="940" y="860" width="180" height="60" as="geometry"/>
                </mxCell>
            </root>
        </mxGraphModel>
    </diagram>
</mxfile>
